<!DOCTYPE svg PUBLIC "-//W3C//DTD SVG 1.1//EN" "http://www.w3.org/Graphics/SVG/1.1/DTD/svg11.dtd">
<!-- Uploaded to: SVG Repo, www.svgrepo.com, Transformed by: SVG Repo Mixer Tools -->
<svg fill="#c29875" width="800px" height="800px" viewBox="0 0 24 24" id="upload-alt-2" data-name="Flat Line" xmlns="http://www.w3.org/2000/svg" class="icon flat-line">
<g id="SVGRepo_bgCarrier" stroke-width="0"/>
<g id="SVGRepo_tracerCarrier" stroke-linecap="round" stroke-linejoin="round"/>
<g id="SVGRepo_iconCarrier">
<path id="secondary" d="M17,8a4.17,4.17,0,0,0-1.13.18A6.5,6.5,0,1,0,9,16v0h8a4,4,0,0,0,0-8Z" style="fill: #ffddc2; stroke-width: 2;"/>
<line id="primary" x1="12" y1="21.18" x2="12" y2="12.18" style="fill: none; stroke: #c29875; stroke-linecap: round; stroke-linejoin: round; stroke-width: 2;"/>
<polyline id="primary-2" data-name="primary" points="15.02 15.04 11.98 12 8.79 15.18" style="fill: none; stroke: #c29875; stroke-linecap: round; stroke-linejoin: round; stroke-width: 2;"/>
<path id="primary-3" data-name="primary" d="M6,15.11A6.59,6.59,0,1,1,16,7.87a4.58,4.58,0,0,1,.83-.08A4.19,4.19,0,0,1,18,16" style="fill: none; stroke: #c29875; stroke-linecap: round; stroke-linejoin: round; stroke-width: 2;"/>
</g>
</svg>