<svg width="543" height="134" viewBox="0 0 543 134" fill="none" xmlns="http://www.w3.org/2000/svg">
<path d="M25.632 18.144C27.936 18.144 30.144 18.336 32.256 18.72C34.432 19.104 36.448 19.584 38.304 20.16C40.16 20.736 41.824 21.408 43.296 22.176C44.832 22.88 46.144 23.616 47.232 24.384L41.664 34.944C40.896 34.56 39.968 34.08 38.88 33.504C37.792 32.864 36.608 32.256 35.328 31.68C34.112 31.104 32.832 30.624 31.488 30.24C30.208 29.856 28.96 29.664 27.744 29.664C25.504 29.664 23.84 30.144 22.752 31.104C21.664 32 21.12 33.152 21.12 34.56C21.184 35.648 21.44 36.608 21.888 37.44C22.336 38.272 23.008 39.104 23.904 39.936C24.8 40.704 25.952 41.472 27.36 42.24C28.768 43.008 30.496 43.808 32.544 44.64C35.104 45.728 37.344 46.848 39.264 48C41.184 49.152 42.752 50.464 43.968 51.936C45.248 53.408 46.208 55.072 46.848 56.928C47.488 58.784 47.808 60.928 47.808 63.36C47.808 66.304 47.264 69.088 46.176 71.712C45.152 74.272 43.648 76.512 41.664 78.432C39.68 80.352 37.28 81.856 34.464 82.944C31.648 84.032 28.48 84.576 24.96 84.576C22.464 84.576 20.064 84.352 17.76 83.904C15.52 83.456 13.44 82.88 11.52 82.176C9.6 81.472 7.84 80.736 6.24 79.968C4.64 79.136 3.264 78.368 2.112 77.664L7.296 66.336C7.744 66.656 8.576 67.2 9.792 67.968C11.008 68.672 12.384 69.408 13.92 70.176C15.456 70.88 17.024 71.52 18.624 72.096C20.224 72.672 21.664 72.96 22.944 72.96C25.632 72.96 27.584 72.352 28.8 71.136C30.08 69.856 30.72 68.064 30.72 65.76C30.72 63.456 29.92 61.728 28.32 60.576C26.784 59.36 24.576 58.176 21.696 57.024C18.88 55.872 16.384 54.656 14.208 53.376C12.032 52.096 10.176 50.656 8.64 49.056C7.168 47.456 6.016 45.664 5.184 43.68C4.416 41.696 4.032 39.392 4.032 36.768C4.032 33.888 4.608 31.328 5.76 29.088C6.976 26.784 8.576 24.832 10.56 23.232C12.544 21.568 14.816 20.32 17.376 19.488C20 18.592 22.752 18.144 25.632 18.144ZM71.2673 19.008V57.696C71.2673 60.512 71.5553 62.848 72.1313 64.704C72.7713 66.56 73.6033 68.064 74.6273 69.216C75.7153 70.368 76.9953 71.2 78.4673 71.712C79.9393 72.16 81.5073 72.384 83.1713 72.384C86.6273 72.384 89.2513 71.168 91.0433 68.736C92.8993 66.24 93.8273 62.56 93.8273 57.696V19.008H109.667V58.56C109.667 62.016 109.187 65.312 108.227 68.448C107.267 71.584 105.667 74.368 103.427 76.8C101.251 79.168 98.4033 81.056 94.8833 82.464C91.3633 83.872 87.0433 84.576 81.9233 84.576C76.9953 84.576 72.8353 83.872 69.4433 82.464C66.1153 80.992 63.4273 79.072 61.3793 76.704C59.3313 74.272 57.8273 71.488 56.8672 68.352C55.9713 65.216 55.5233 61.952 55.5233 58.56V19.008H71.2673ZM159.008 19.008H174.848V84H161.312L142.784 55.968C142.4 55.392 141.856 54.56 141.152 53.472C140.512 52.384 139.808 51.264 139.04 50.112C138.336 48.896 137.632 47.744 136.928 46.656C136.288 45.504 135.744 44.576 135.296 43.872C135.36 44.832 135.424 46.016 135.488 47.424C135.616 48.768 135.712 50.144 135.776 51.552C135.904 52.96 136 54.336 136.064 55.68C136.128 57.024 136.16 58.144 136.16 59.04L136.448 84H120.608V19.008H133.568L152.288 46.848C152.864 47.744 153.504 48.768 154.208 49.92C154.912 51.008 155.616 52.128 156.32 53.28C157.088 54.432 157.792 55.552 158.432 56.64C159.072 57.664 159.616 58.56 160.064 59.328C160 58.304 159.936 57.12 159.872 55.776C159.808 54.432 159.712 53.056 159.584 51.648C159.52 50.176 159.456 48.768 159.392 47.424C159.328 46.08 159.296 44.896 159.296 43.872L159.008 19.008ZM186.796 19.008C187.244 19.008 188.268 19.008 189.868 19.008C191.532 18.944 193.42 18.912 195.532 18.912C197.644 18.912 199.82 18.912 202.06 18.912C204.364 18.848 206.412 18.816 208.204 18.816C213.644 18.816 218.316 19.648 222.22 21.312C226.188 22.912 229.452 25.184 232.012 28.128C234.572 31.072 236.46 34.592 237.676 38.688C238.892 42.72 239.5 47.168 239.5 52.032C239.5 57.024 238.86 61.504 237.58 65.472C236.364 69.44 234.444 72.832 231.82 75.648C229.26 78.4 225.996 80.512 222.028 81.984C218.06 83.456 213.356 84.192 207.916 84.192C206.06 84.192 204.364 84.16 202.828 84.096C201.292 84.096 199.724 84.096 198.124 84.096C196.524 84.096 194.828 84.064 193.036 84C191.244 84 189.164 84 186.796 84V19.008ZM207.532 29.952C206.444 29.952 205.612 29.984 205.036 30.048C204.46 30.048 203.66 30.048 202.636 30.048V72.96C203.468 73.024 204.204 73.056 204.844 73.056C205.484 73.056 206.38 73.056 207.532 73.056C210.348 73.056 212.684 72.576 214.54 71.616C216.46 70.656 217.996 69.28 219.148 67.488C220.3 65.696 221.132 63.52 221.644 60.96C222.156 58.336 222.412 55.424 222.412 52.224C222.412 37.376 217.452 29.952 207.532 29.952ZM263.732 19.008H277.844L301.652 84H285.62L280.82 68.352H259.796L254.804 84H239.06L263.732 19.008ZM277.268 56.64C276.628 54.784 275.956 52.864 275.252 50.88C274.612 48.832 273.972 46.848 273.332 44.928C272.756 43.008 272.212 41.216 271.7 39.552C271.188 37.824 270.74 36.384 270.356 35.232C269.972 36.448 269.524 37.92 269.012 39.648C268.5 41.312 267.924 43.104 267.284 45.024C266.708 46.944 266.068 48.896 265.364 50.88C264.724 52.864 264.084 54.784 263.444 56.64H277.268ZM307.452 19.008C308.028 19.008 309.18 19.008 310.908 19.008C312.636 18.944 314.556 18.912 316.668 18.912C318.78 18.912 320.828 18.912 322.812 18.912C324.796 18.848 326.332 18.816 327.42 18.816C335.612 18.816 341.756 20.384 345.852 23.52C349.948 26.656 351.996 31.296 351.996 37.44C351.996 41.536 351.004 44.928 349.02 47.616C347.036 50.24 344.348 52.288 340.956 53.76C342.876 54.848 344.572 56.288 346.044 58.08C347.516 59.872 348.924 62.048 350.268 64.608C351.612 67.104 352.956 69.984 354.3 73.248C355.708 76.512 357.244 80.096 358.908 84H341.916C339.868 79.52 338.14 75.584 336.732 72.192C335.324 68.736 334.012 65.856 332.796 63.552C331.58 61.184 330.364 59.424 329.148 58.272C327.996 57.056 326.588 56.448 324.924 56.448H323.292V84H307.452V19.008ZM323.292 46.56H327.324C329.564 46.56 331.452 45.888 332.988 44.544C334.588 43.136 335.388 40.96 335.388 38.016C335.388 36.8 335.228 35.68 334.908 34.656C334.652 33.568 334.204 32.64 333.564 31.872C332.924 31.04 332.028 30.4 330.876 29.952C329.788 29.44 328.444 29.184 326.844 29.184H323.292V46.56ZM364.921 19.008C365.497 19.008 366.649 19.008 368.377 19.008C370.169 18.944 372.121 18.912 374.233 18.912C376.345 18.912 378.393 18.912 380.377 18.912C382.361 18.848 383.865 18.816 384.889 18.816C393.017 18.816 399.129 20.352 403.225 23.424C407.385 26.432 409.465 30.528 409.465 35.712C409.465 38.976 408.409 41.856 406.297 44.352C404.249 46.848 401.209 48.768 397.177 50.112C401.977 51.52 405.529 53.568 407.833 56.256C410.201 58.944 411.385 62.144 411.385 65.856C411.385 78.016 402.201 84.096 383.833 84.096C382.937 84.096 381.561 84.096 379.705 84.096C377.913 84.096 376.025 84.064 374.041 84C372.057 84 370.201 84 368.473 84C366.809 84 365.625 84 364.921 84V19.008ZM380.761 73.632H385.465C386.745 73.632 387.929 73.504 389.017 73.248C390.169 72.992 391.161 72.576 391.993 72C392.825 71.36 393.465 70.528 393.913 69.504C394.425 68.416 394.681 67.072 394.681 65.472C394.681 64.256 394.521 63.104 394.201 62.016C393.881 60.864 393.337 59.872 392.569 59.04C391.801 58.144 390.777 57.44 389.497 56.928C388.281 56.416 386.777 56.16 384.985 56.16C384.089 56.16 383.257 56.192 382.489 56.256C381.785 56.256 381.209 56.288 380.761 56.352V73.632ZM380.761 46.272H385.177C387.161 46.272 388.921 45.664 390.457 44.448C392.057 43.232 392.857 41.024 392.857 37.824C392.857 35.136 392.217 33.056 390.937 31.584C389.721 30.048 387.673 29.28 384.793 29.28C383.961 29.28 383.161 29.28 382.393 29.28C381.689 29.28 381.145 29.312 380.761 29.376V46.272ZM438.67 19.008H452.782L476.59 84H460.558L455.758 68.352H434.734L429.742 84H413.998L438.67 19.008ZM452.206 56.64C451.566 54.784 450.894 52.864 450.19 50.88C449.55 48.832 448.91 46.848 448.27 44.928C447.694 43.008 447.15 41.216 446.638 39.552C446.126 37.824 445.678 36.384 445.294 35.232C444.91 36.448 444.462 37.92 443.95 39.648C443.438 41.312 442.862 43.104 442.222 45.024C441.646 46.944 441.006 48.896 440.302 50.88C439.662 52.864 439.022 54.784 438.382 56.64H452.206ZM520.79 19.008H536.63V84H523.094L504.566 55.968C504.182 55.392 503.638 54.56 502.934 53.472C502.294 52.384 501.59 51.264 500.822 50.112C500.118 48.896 499.414 47.744 498.71 46.656C498.07 45.504 497.526 44.576 497.078 43.872C497.142 44.832 497.206 46.016 497.27 47.424C497.398 48.768 497.494 50.144 497.558 51.552C497.686 52.96 497.782 54.336 497.846 55.68C497.91 57.024 497.942 58.144 497.942 59.04L498.23 84H482.39V19.008H495.35L514.07 46.848C514.646 47.744 515.286 48.768 515.99 49.92C516.694 51.008 517.398 52.128 518.102 53.28C518.87 54.432 519.574 55.552 520.214 56.64C520.854 57.664 521.398 58.56 521.846 59.328C521.782 58.304 521.718 57.12 521.654 55.776C521.59 54.432 521.494 53.056 521.366 51.648C521.302 50.176 521.238 48.768 521.174 47.424C521.11 46.08 521.078 44.896 521.078 43.872L520.79 19.008Z" fill="#262626"/>
<path d="M59.092 108.568C58.42 107.752 57.772 107.212 57.148 106.948C56.524 106.66 55.9 106.516 55.276 106.516C53.716 106.516 52.576 107.248 51.856 108.712C51.16 110.152 50.812 112.156 50.812 114.724C50.812 115.948 50.884 117.076 51.028 118.108C51.196 119.116 51.472 119.98 51.856 120.7C52.24 121.42 52.744 121.984 53.368 122.392C54.016 122.8 54.82 123.004 55.78 123.004C56.62 123.004 57.436 122.908 58.228 122.716C59.044 122.5 59.788 122.26 60.46 121.996L61.756 126.028C61.012 126.34 60.076 126.616 58.948 126.856C57.82 127.096 56.524 127.216 55.06 127.216C51.364 127.216 48.664 126.172 46.96 124.084C45.256 121.972 44.404 118.984 44.404 115.12C44.404 113.248 44.62 111.532 45.052 109.972C45.508 108.412 46.18 107.068 47.068 105.94C47.98 104.788 49.108 103.9 50.452 103.276C51.82 102.628 53.428 102.304 55.276 102.304C56.236 102.304 57.076 102.388 57.796 102.556C58.54 102.724 59.188 102.952 59.74 103.24C60.292 103.504 60.772 103.816 61.18 104.176C61.612 104.536 61.996 104.908 62.332 105.292L59.092 108.568ZM75.0088 102.304C76.9048 102.304 78.5368 102.592 79.9048 103.168C81.2728 103.744 82.4008 104.56 83.2888 105.616C84.1768 106.672 84.8248 107.968 85.2328 109.504C85.6648 111.016 85.8808 112.72 85.8808 114.616C85.8808 116.488 85.6408 118.204 85.1608 119.764C84.7048 121.3 84.0088 122.62 83.0728 123.724C82.1368 124.828 80.9608 125.692 79.5448 126.316C78.1288 126.916 76.4608 127.216 74.5408 127.216C72.6448 127.216 71.0008 126.952 69.6088 126.424C68.2408 125.872 67.1128 125.08 66.2248 124.048C65.3368 122.992 64.6768 121.72 64.2448 120.232C63.8368 118.744 63.6328 117.04 63.6328 115.12C63.6328 113.248 63.8608 111.532 64.3168 109.972C64.7968 108.388 65.5048 107.032 66.4408 105.904C67.3768 104.752 68.5528 103.864 69.9688 103.24C71.4088 102.616 73.0888 102.304 75.0088 102.304ZM74.5048 106.516C72.9448 106.516 71.8048 107.248 71.0848 108.712C70.3888 110.152 70.0408 112.156 70.0408 114.724C70.0408 115.948 70.1128 117.064 70.2568 118.072C70.4248 119.08 70.6888 119.956 71.0488 120.7C71.4328 121.42 71.9488 121.984 72.5968 122.392C73.2448 122.8 74.0608 123.004 75.0448 123.004C76.6048 123.004 77.7328 122.308 78.4288 120.916C79.1248 119.524 79.4728 117.544 79.4728 114.976C79.4728 113.752 79.3888 112.624 79.2208 111.592C79.0768 110.56 78.8128 109.672 78.4288 108.928C78.0688 108.16 77.5648 107.572 76.9168 107.164C76.2688 106.732 75.4648 106.516 74.5048 106.516ZM95.0377 102.628V117.136C95.0377 118.192 95.1457 119.068 95.3617 119.764C95.6017 120.46 95.9137 121.024 96.2977 121.456C96.7057 121.888 97.1857 122.2 97.7377 122.392C98.2897 122.56 98.8777 122.644 99.5017 122.644C100.798 122.644 101.782 122.188 102.454 121.276C103.15 120.34 103.498 118.96 103.498 117.136V102.628H109.438V117.46C109.438 118.756 109.258 119.992 108.898 121.168C108.538 122.344 107.938 123.388 107.098 124.3C106.282 125.188 105.214 125.896 103.894 126.424C102.574 126.952 100.954 127.216 99.0337 127.216C97.1857 127.216 95.6257 126.952 94.3537 126.424C93.1057 125.872 92.0977 125.152 91.3297 124.264C90.5617 123.352 89.9977 122.308 89.6377 121.132C89.3017 119.956 89.1337 118.732 89.1337 117.46V102.628H95.0377ZM113.541 102.628C113.757 102.628 114.189 102.628 114.837 102.628C115.485 102.604 116.205 102.592 116.997 102.592C117.789 102.592 118.557 102.592 119.301 102.592C120.045 102.568 120.621 102.556 121.029 102.556C124.101 102.556 126.405 103.144 127.941 104.32C129.477 105.496 130.245 107.236 130.245 109.54C130.245 111.076 129.873 112.348 129.129 113.356C128.385 114.34 127.377 115.108 126.105 115.66C126.825 116.068 127.461 116.608 128.013 117.28C128.565 117.952 129.093 118.768 129.597 119.728C130.101 120.664 130.605 121.744 131.109 122.968C131.637 124.192 132.213 125.536 132.837 127H126.465C125.697 125.32 125.049 123.844 124.521 122.572C123.993 121.276 123.501 120.196 123.045 119.332C122.589 118.444 122.133 117.784 121.677 117.352C121.245 116.896 120.717 116.668 120.093 116.668H119.481V127H113.541V102.628ZM119.481 112.96H120.993C121.833 112.96 122.541 112.708 123.117 112.204C123.717 111.676 124.017 110.86 124.017 109.756C124.017 109.3 123.957 108.88 123.837 108.496C123.741 108.088 123.573 107.74 123.333 107.452C123.093 107.14 122.757 106.9 122.325 106.732C121.917 106.54 121.413 106.444 120.813 106.444H119.481V112.96ZM135.091 102.628H141.031V127H135.091V102.628ZM145.498 102.628H161.014V106.984H151.438V112.204H159.394L158.71 116.488H151.438V122.644H161.518V127H145.498V102.628ZM164.377 102.628C164.593 102.628 165.025 102.628 165.673 102.628C166.321 102.604 167.041 102.592 167.833 102.592C168.625 102.592 169.393 102.592 170.137 102.592C170.881 102.568 171.457 102.556 171.865 102.556C174.937 102.556 177.241 103.144 178.777 104.32C180.313 105.496 181.081 107.236 181.081 109.54C181.081 111.076 180.709 112.348 179.965 113.356C179.221 114.34 178.213 115.108 176.941 115.66C177.661 116.068 178.297 116.608 178.849 117.28C179.401 117.952 179.929 118.768 180.433 119.728C180.937 120.664 181.441 121.744 181.945 122.968C182.473 124.192 183.049 125.536 183.673 127H177.301C176.533 125.32 175.885 123.844 175.357 122.572C174.829 121.276 174.337 120.196 173.881 119.332C173.425 118.444 172.969 117.784 172.513 117.352C172.081 116.896 171.553 116.668 170.929 116.668H170.317V127H164.377V102.628ZM170.317 112.96H171.829C172.669 112.96 173.377 112.708 173.953 112.204C174.553 111.676 174.853 110.86 174.853 109.756C174.853 109.3 174.793 108.88 174.673 108.496C174.577 108.088 174.409 107.74 174.169 107.452C173.929 107.14 173.593 106.9 173.161 106.732C172.753 106.54 172.249 106.444 171.649 106.444H170.317V112.96ZM202.483 102.304C203.347 102.304 204.175 102.376 204.967 102.52C205.783 102.664 206.539 102.844 207.235 103.06C207.931 103.276 208.555 103.528 209.107 103.816C209.683 104.08 210.175 104.356 210.583 104.644L208.495 108.604C208.207 108.46 207.859 108.28 207.451 108.064C207.043 107.824 206.599 107.596 206.119 107.38C205.663 107.164 205.183 106.984 204.679 106.84C204.199 106.696 203.731 106.624 203.275 106.624C202.435 106.624 201.811 106.804 201.403 107.164C200.995 107.5 200.791 107.932 200.791 108.46C200.815 108.868 200.911 109.228 201.079 109.54C201.247 109.852 201.499 110.164 201.835 110.476C202.171 110.764 202.603 111.052 203.131 111.34C203.659 111.628 204.307 111.928 205.075 112.24C206.035 112.648 206.875 113.068 207.595 113.5C208.315 113.932 208.903 114.424 209.359 114.976C209.839 115.528 210.199 116.152 210.439 116.848C210.679 117.544 210.799 118.348 210.799 119.26C210.799 120.364 210.595 121.408 210.187 122.392C209.803 123.352 209.239 124.192 208.495 124.912C207.751 125.632 206.851 126.196 205.795 126.604C204.739 127.012 203.551 127.216 202.231 127.216C201.295 127.216 200.395 127.132 199.531 126.964C198.691 126.796 197.911 126.58 197.191 126.316C196.471 126.052 195.811 125.776 195.211 125.488C194.611 125.176 194.095 124.888 193.663 124.624L195.607 120.376C195.775 120.496 196.087 120.7 196.543 120.988C196.999 121.252 197.515 121.528 198.091 121.816C198.667 122.08 199.255 122.32 199.855 122.536C200.455 122.752 200.995 122.86 201.475 122.86C202.483 122.86 203.215 122.632 203.671 122.176C204.151 121.696 204.391 121.024 204.391 120.16C204.391 119.296 204.091 118.648 203.491 118.216C202.915 117.76 202.087 117.316 201.007 116.884C199.951 116.452 199.015 115.996 198.199 115.516C197.383 115.036 196.687 114.496 196.111 113.896C195.559 113.296 195.127 112.624 194.815 111.88C194.527 111.136 194.383 110.272 194.383 109.288C194.383 108.208 194.599 107.248 195.031 106.408C195.487 105.544 196.087 104.812 196.831 104.212C197.575 103.588 198.427 103.12 199.387 102.808C200.371 102.472 201.403 102.304 202.483 102.304ZM214.052 102.628H229.568V106.984H219.992V112.204H227.948L227.264 116.488H219.992V122.644H230.072V127H214.052V102.628ZM232.931 102.628C233.147 102.628 233.579 102.628 234.227 102.628C234.875 102.604 235.595 102.592 236.387 102.592C237.179 102.592 237.947 102.592 238.691 102.592C239.435 102.568 240.011 102.556 240.419 102.556C243.491 102.556 245.795 103.144 247.331 104.32C248.867 105.496 249.635 107.236 249.635 109.54C249.635 111.076 249.263 112.348 248.519 113.356C247.775 114.34 246.767 115.108 245.495 115.66C246.215 116.068 246.851 116.608 247.403 117.28C247.955 117.952 248.483 118.768 248.987 119.728C249.491 120.664 249.995 121.744 250.499 122.968C251.027 124.192 251.603 125.536 252.227 127H245.855C245.087 125.32 244.439 123.844 243.911 122.572C243.383 121.276 242.891 120.196 242.435 119.332C241.979 118.444 241.523 117.784 241.067 117.352C240.635 116.896 240.107 116.668 239.483 116.668H238.871V127H232.931V102.628ZM238.871 112.96H240.383C241.223 112.96 241.931 112.708 242.507 112.204C243.107 111.676 243.407 110.86 243.407 109.756C243.407 109.3 243.347 108.88 243.227 108.496C243.131 108.088 242.963 107.74 242.723 107.452C242.483 107.14 242.147 106.9 241.715 106.732C241.307 106.54 240.803 106.444 240.203 106.444H238.871V112.96ZM264.533 127H259.493L250.385 102.628H256.649L259.889 112.348C260.369 113.812 260.789 115.192 261.149 116.488C261.509 117.76 261.809 118.852 262.049 119.764C262.289 118.852 262.589 117.772 262.949 116.524C263.309 115.276 263.753 113.896 264.281 112.384L267.593 102.628H273.641L264.533 127ZM275.787 102.628H281.727V127H275.787V102.628ZM300.053 108.568C299.381 107.752 298.733 107.212 298.109 106.948C297.485 106.66 296.861 106.516 296.237 106.516C294.677 106.516 293.537 107.248 292.817 108.712C292.121 110.152 291.773 112.156 291.773 114.724C291.773 115.948 291.845 117.076 291.989 118.108C292.157 119.116 292.433 119.98 292.817 120.7C293.201 121.42 293.705 121.984 294.329 122.392C294.977 122.8 295.781 123.004 296.741 123.004C297.581 123.004 298.397 122.908 299.189 122.716C300.005 122.5 300.749 122.26 301.421 121.996L302.717 126.028C301.973 126.34 301.037 126.616 299.909 126.856C298.781 127.096 297.485 127.216 296.021 127.216C292.325 127.216 289.625 126.172 287.921 124.084C286.217 121.972 285.365 118.984 285.365 115.12C285.365 113.248 285.581 111.532 286.013 109.972C286.469 108.412 287.141 107.068 288.029 105.94C288.941 104.788 290.069 103.9 291.413 103.276C292.781 102.628 294.389 102.304 296.237 102.304C297.197 102.304 298.037 102.388 298.757 102.556C299.501 102.724 300.149 102.952 300.701 103.24C301.253 103.504 301.733 103.816 302.141 104.176C302.573 104.536 302.957 104.908 303.293 105.292L300.053 108.568ZM305.951 102.628H321.467V106.984H311.891V112.204H319.847L319.163 116.488H311.891V122.644H321.971V127H305.951V102.628ZM334.005 117.316C334.005 114.988 334.269 112.912 334.797 111.088C335.349 109.264 336.021 107.668 336.813 106.3C337.605 104.932 338.433 103.804 339.297 102.916C340.185 102.004 340.953 101.32 341.601 100.864L344.589 104.176C344.085 104.704 343.545 105.376 342.969 106.192C342.393 106.984 341.865 107.932 341.385 109.036C340.905 110.116 340.509 111.352 340.197 112.744C339.885 114.112 339.729 115.648 339.729 117.352C339.729 119.08 339.885 120.64 340.197 122.032C340.509 123.424 340.905 124.66 341.385 125.74C341.865 126.82 342.381 127.756 342.933 128.548C343.509 129.364 344.061 130.036 344.589 130.564L341.601 133.876C340.953 133.42 340.185 132.736 339.297 131.824C338.433 130.936 337.605 129.808 336.813 128.44C336.021 127.072 335.349 125.464 334.797 123.616C334.269 121.768 334.005 119.668 334.005 117.316ZM347.857 102.628C348.025 102.628 348.421 102.628 349.045 102.628C349.693 102.604 350.401 102.592 351.169 102.592C351.937 102.592 352.705 102.592 353.473 102.592C354.241 102.568 354.865 102.556 355.345 102.556C358.417 102.556 360.721 103.216 362.257 104.536C363.793 105.832 364.561 107.644 364.561 109.972C364.561 112.54 363.697 114.472 361.969 115.768C360.241 117.04 357.877 117.676 354.877 117.676H353.797V127H347.857V102.628ZM353.797 113.752H355.309C356.125 113.752 356.833 113.476 357.433 112.924C358.033 112.348 358.333 111.46 358.333 110.26C358.333 109.252 358.081 108.376 357.577 107.632C357.097 106.888 356.281 106.504 355.129 106.48C354.817 106.48 354.553 106.492 354.337 106.516C354.121 106.516 353.941 106.528 353.797 106.552V113.752ZM378.58 127H373.54L364.432 102.628H370.696L373.936 112.348C374.416 113.812 374.836 115.192 375.196 116.488C375.556 117.76 375.856 118.852 376.096 119.764C376.336 118.852 376.636 117.772 376.996 116.524C377.356 115.276 377.8 113.896 378.328 112.384L381.64 102.628H387.688L378.58 127ZM406.485 102.628L405.729 106.984H400.113V127H394.173V106.984H388.377V102.628H406.485ZM407.339 120.916C408.347 120.916 409.115 121.216 409.643 121.816C410.195 122.416 410.471 123.172 410.471 124.084C410.471 124.996 410.195 125.776 409.643 126.424C409.115 127.048 408.323 127.36 407.267 127.36C406.259 127.36 405.479 127.048 404.927 126.424C404.375 125.8 404.099 125.068 404.099 124.228C404.099 123.292 404.375 122.512 404.927 121.888C405.479 121.24 406.283 120.916 407.339 120.916ZM424.267 117.316C424.267 119.668 423.991 121.768 423.439 123.616C422.911 125.464 422.251 127.072 421.459 128.44C420.667 129.808 419.827 130.936 418.939 131.824C418.075 132.736 417.319 133.42 416.671 133.876L413.683 130.564C414.211 130.036 414.763 129.364 415.339 128.548C415.915 127.756 416.443 126.82 416.923 125.74C417.403 124.66 417.799 123.424 418.111 122.032C418.423 120.64 418.579 119.08 418.579 117.352C418.579 115.648 418.423 114.112 418.111 112.744C417.799 111.352 417.391 110.116 416.887 109.036C416.407 107.932 415.879 106.984 415.303 106.192C414.727 105.376 414.187 104.704 413.683 104.176L416.671 100.864C417.319 101.32 418.075 102.004 418.939 102.916C419.827 103.804 420.667 104.932 421.459 106.3C422.251 107.668 422.911 109.264 423.439 111.088C423.991 112.912 424.267 114.988 424.267 117.316ZM437.646 102.628H443.586V122.644H452.154V127H437.646V102.628ZM466.496 102.628L465.74 106.984H460.124V127H454.184V106.984H448.388V102.628H466.496ZM468.795 102.628C468.963 102.628 469.347 102.628 469.947 102.628C470.571 102.604 471.279 102.592 472.071 102.592C472.863 102.592 473.679 102.592 474.519 102.592C475.383 102.568 476.151 102.556 476.823 102.556C478.863 102.556 480.615 102.868 482.079 103.492C483.567 104.092 484.791 104.944 485.751 106.048C486.711 107.152 487.419 108.472 487.875 110.008C488.331 111.52 488.559 113.188 488.559 115.012C488.559 116.884 488.319 118.564 487.839 120.052C487.383 121.54 486.663 122.812 485.679 123.868C484.719 124.9 483.495 125.692 482.007 126.244C480.519 126.796 478.755 127.072 476.715 127.072C476.019 127.072 475.383 127.06 474.807 127.036C474.231 127.036 473.643 127.036 473.043 127.036C472.443 127.036 471.807 127.024 471.135 127C470.463 127 469.683 127 468.795 127V102.628ZM476.571 106.732C476.163 106.732 475.851 106.744 475.635 106.768C475.419 106.768 475.119 106.768 474.735 106.768V122.86C475.047 122.884 475.323 122.896 475.562 122.896C475.803 122.896 476.139 122.896 476.571 122.896C477.627 122.896 478.503 122.716 479.199 122.356C479.919 121.996 480.495 121.48 480.927 120.808C481.359 120.136 481.671 119.32 481.863 118.36C482.055 117.376 482.151 116.284 482.151 115.084C482.151 109.516 480.291 106.732 476.571 106.732ZM494.28 120.916C495.288 120.916 496.056 121.216 496.584 121.816C497.136 122.416 497.412 123.172 497.412 124.084C497.412 124.996 497.136 125.776 496.584 126.424C496.056 127.048 495.264 127.36 494.208 127.36C493.2 127.36 492.42 127.048 491.868 126.424C491.316 125.8 491.04 125.068 491.04 124.228C491.04 123.292 491.316 122.512 491.868 121.888C492.42 121.24 493.224 120.916 494.28 120.916Z" fill="#F2BE27"/>
</svg>
