<svg xmlns="http://www.w3.org/2000/svg" viewBox="0 0 1188.85 407.58"><defs><style>.cls-1,.cls-2{fill:none;stroke:#000;stroke-miterlimit:10;}.cls-2{stroke-dasharray:10.02 10.02;}</style></defs><g id="Layer_2" data-name="Layer 2"><g id="Layer_2-2" data-name="Layer 2"><path class="cls-1" d="M1188.4,94.3q-1.05,2.25-2.15,4.51" transform="translate(0 0)"/><path class="cls-2" d="M1181.75,107.76c-32.26,62-88.61,126.53-160.88,132.39-45.58,3.7-89.85-17.62-124.3-45.93-31.36-25.77-47.46-59.15-72.71-89.37C785.65,59.1,733.08,28.43,675.71,13.23,633.77,2.12,590-1,546.75,1.12c-60.59,3-119.52,37.12-144.67,93.48-14.92,33.44-17.85,71-15.13,107.17,4.42,58.8,25.85,114.54-12.68,167.3-31.4,43-88.76,43.26-135.69,31.13-40.71-10.53-60.56-49.07-100-63.85-52.71-19.75-99.43,10.77-132,50.76" transform="translate(0 0)"/><path class="cls-1" d="M3.44,391q-1.54,2-3,4" transform="translate(0 0)"/></g></g></svg>